<svg width="57" height="56" viewBox="0 0 57 56" fill="none" xmlns="http://www.w3.org/2000/svg">
<path d="M42.0799 21.5954C42.0797 21.0737 41.9675 20.6127 41.7406 20.217C41.5177 19.8279 41.1839 19.5018 40.7362 19.244C37.0405 17.1249 33.3412 15.0122 29.6467 12.891C28.6507 12.3191 27.6849 12.34 26.6963 12.92C25.2253 13.7827 17.8605 17.9787 15.6659 19.2428C14.7621 19.7631 14.3223 20.5594 14.3221 21.5944C14.3207 25.8561 14.3221 30.1176 14.3207 34.3794C14.3209 34.8897 14.4283 35.3417 14.6452 35.7314C14.8682 36.1323 15.2067 36.4673 15.6647 36.731C17.8594 37.9951 25.2252 42.1908 26.6959 43.0537C27.6849 43.6341 28.6507 43.6548 29.647 43.0828C33.3416 40.9614 37.0411 38.8488 40.7374 36.7297C41.1954 36.4662 41.5339 36.1309 41.7569 35.7304C41.9734 35.3407 42.0811 34.8886 42.0813 34.3783C42.0813 34.3783 42.0813 25.8572 42.0799 21.5954Z" fill="#5C8DBC"/>
<path d="M28.2435 27.9454L14.6452 35.7315C14.8682 36.1323 15.2067 36.4674 15.6647 36.731C17.8594 37.9951 25.2252 42.1908 26.6959 43.0537C27.685 43.6341 28.6507 43.6548 29.647 43.0828C33.3416 40.9614 37.0412 38.8489 40.7374 36.7297C41.1954 36.4662 41.5339 36.1309 41.7569 35.7304L28.2435 27.9454Z" fill="#1A4674"/>
<path d="M24.2158 30.2517C25.0071 31.6254 26.4946 32.5519 28.201 32.5519C29.9179 32.5519 31.4139 31.6136 32.2011 30.2252L28.2435 27.9454L24.2158 30.2517Z" fill="#1A4674"/>
<path d="M42.0799 21.5954C42.0797 21.0737 41.9675 20.6127 41.7406 20.217L28.2435 27.9454L41.7569 35.7304C41.9734 35.3407 42.0811 34.8887 42.0813 34.3783C42.0813 34.3783 42.0813 25.8572 42.0799 21.5954Z" fill="#1B598E"/>
<path d="M41.3368 28.5019H40.2808V29.5522H39.2246V28.5019H38.1688V27.4519H39.2246V26.4018H40.2808V27.4519H41.3368V28.5019ZM37.4836 28.5019H36.4278V29.5522H35.3718V28.5019H34.3158V27.4519H35.3718V26.4018H36.4278V27.4519H37.4836V28.5019Z" fill="white"/>
<path d="M32.2012 30.2252C31.4139 31.6137 29.9179 32.552 28.201 32.552C26.4946 32.552 25.0071 31.6254 24.2158 30.2517C23.8183 29.5624 23.6096 28.7815 23.6104 27.9869C23.6104 25.4657 25.6658 23.4219 28.201 23.4219C29.8964 23.4219 31.3761 24.3369 32.1713 25.6965L36.1837 23.3989C34.5889 20.6612 31.6114 18.8193 28.201 18.8193C23.1094 18.8193 18.9821 22.9238 18.9821 27.9869C18.9821 29.6479 19.4264 31.2056 20.2031 32.5492C21.7939 35.3014 24.7799 37.1546 28.201 37.1546C31.6284 37.1546 34.6191 35.2939 36.2076 32.5336L32.2012 30.2252Z" fill="white"/>
</svg>
